<?xml version="1.0" encoding="UTF-8" standalone="no"?>
<!DOCTYPE svg PUBLIC "-//W3C//DTD SVG 1.1//EN" "http://www.w3.org/Graphics/SVG/1.1/DTD/svg11.dtd">
<svg width="100%" height="100%" viewBox="0 0 64 64" version="1.1" xmlns="http://www.w3.org/2000/svg" xmlns:xlink="http://www.w3.org/1999/xlink" xml:space="preserve" xmlns:serif="http://www.serif.com/" style="fill-rule:evenodd;clip-rule:evenodd;stroke-linecap:round;stroke-linejoin:round;">
    <g transform="matrix(2.666667,0,0,2.666667,0,0)">
        <path d="M15,7.13L15,6C14.999,4.355 13.645,3.002 12,3.002C11.195,3.002 10.424,3.326 9.86,3.9L8,2" style="fill:none;fill-rule:nonzero;stroke:white;stroke-width:1.5px;"/>
    </g>
    <g transform="matrix(2.666667,0,0,2.666667,0,0)">
        <path d="M14.12,3.88L16,2" style="fill:none;fill-rule:nonzero;stroke:white;stroke-width:1.5px;"/>
    </g>
    <g transform="matrix(2.666667,0,0,2.666667,0,0)">
        <path d="M22,13L18,13L18,11C18,8.806 16.194,7 14,7L12.7,7" style="fill:none;fill-rule:nonzero;stroke:white;stroke-width:1.5px;"/>
    </g>
    <g transform="matrix(2.666667,0,0,2.666667,0,0)">
        <path d="M20.97,5C20.97,7.1 19.37,8.8 17.47,9" style="fill:none;fill-rule:nonzero;stroke:white;stroke-width:1.5px;"/>
    </g>
    <g transform="matrix(2.666667,0,0,2.666667,0,0)">
        <path d="M2,2L22,22" style="fill:none;fill-rule:nonzero;stroke:white;stroke-width:1.5px;"/>
    </g>
    <g transform="matrix(2.666667,0,0,2.666667,0,0)">
        <path d="M7.7,7.7C6.627,8.454 5.991,9.689 6,11L6,14C6,14.006 6,14.012 6,14.018C6,17.31 8.708,20.018 12,20.018C14.095,20.018 16.044,18.921 17.13,17.13" style="fill:none;fill-rule:nonzero;stroke:white;stroke-width:1.5px;"/>
    </g>
    <g transform="matrix(2.666667,0,0,2.666667,0,0)">
        <path d="M12,20L12,12" style="fill:none;fill-rule:nonzero;stroke:white;stroke-width:1.5px;"/>
    </g>
    <g transform="matrix(2.666667,0,0,2.666667,0,0)">
        <path d="M6,13L2,13" style="fill:none;fill-rule:nonzero;stroke:white;stroke-width:1.5px;"/>
    </g>
    <g transform="matrix(2.666667,0,0,2.666667,0,0)">
        <path d="M3,21C3,18.9 4.7,17.1 6.8,17" style="fill:none;fill-rule:nonzero;stroke:white;stroke-width:1.5px;"/>
    </g>
</svg>
