<?xml version="1.0" encoding="UTF-8" standalone="no"?>
<!DOCTYPE svg PUBLIC "-//W3C//DTD SVG 1.1//EN" "http://www.w3.org/Graphics/SVG/1.1/DTD/svg11.dtd">
<svg width="100%" height="100%" viewBox="0 0 64 64" version="1.1" xmlns="http://www.w3.org/2000/svg" xmlns:xlink="http://www.w3.org/1999/xlink" xml:space="preserve" xmlns:serif="http://www.serif.com/" style="fill-rule:evenodd;clip-rule:evenodd;stroke-linecap:round;stroke-linejoin:round;">
    <g transform="matrix(2.666667,0,0,2.666667,-1,0)">
        <path d="M21,3.75L21,20.25C21,20.664 20.664,21 20.25,21L3.75,21C3.336,21 3,20.664 3,20.25L3,3.75C3,3.336 3.336,3 3.75,3L20.25,3C20.664,3 21,3.336 21,3.75Z" style="fill:none;stroke:white;stroke-width:1.5px;"/>
    </g>
    <g transform="matrix(2.666667,0,0,2.666667,-1,0)">
        <path d="M3,9L21,9" style="fill:none;fill-rule:nonzero;stroke:white;stroke-width:1.5px;"/>
    </g>
    <g transform="matrix(2.666667,0,0,2.666667,-1,0)">
        <path d="M9,21L9,9" style="fill:none;fill-rule:nonzero;stroke:white;stroke-width:1.5px;"/>
    </g>
</svg>
