<?xml version="1.0" encoding="utf-8"?>
<!-- Generator: Adobe Illustrator 28.2.0, SVG Export Plug-In . SVG Version: 6.00 Build 0)  -->
<svg version="1.1" id="Layer_1" xmlns:serif="http://www.serif.com/"
	 xmlns="http://www.w3.org/2000/svg" xmlns:xlink="http://www.w3.org/1999/xlink" x="0px" y="0px" viewBox="0 0 283.5 396.9"
	 style="enable-background:new 0 0 283.5 396.9;" xml:space="preserve">
<path d="M35.4,340.2c-2.2,0-4.3-0.8-6-2.3c-2.6-2.4-3.5-6-2.5-9.3l18.9-57.4c-18.2-23.5-28.2-52.3-28.2-81.5
	c0-73.3,59.6-132.9,132.9-132.9c73.3,0,132.9,59.6,132.9,132.9s-59.6,132.9-132.9,132.9c-18,0-35.4-3.4-50.5-9.8L39,339.4
	C37.8,339.9,36.6,340.2,35.4,340.2z M150.6,74.4c-63.5,0-115.2,51.7-115.2,115.2c0,26.7,9.7,53,27.2,74.1c2,2.3,2.6,5.5,1.6,8.4
	L50,315.2l46.5-20.4c2.3-1,5-1,7.3,0.1c13.6,6.4,29.8,9.8,46.7,9.8c63.5,0,115.2-51.7,115.2-115.2
	C265.7,126.1,214.1,74.4,150.6,74.4z"/>
<g id="Page-1">
	<g id="Whatsapp" transform="matrix(1,0,0,1,1,1)">
		<path d="M190.2,257.1c-6.8,0-16.8-1.9-35.8-9.8c-20.1-8.7-39.1-25.3-56.7-49.5c-0.5-0.6-1-1.4-1.2-1.6
			c-2.5-2.7-14.9-19.6-14.9-37.7c0-18,8.9-27.3,13-31.4c3.4-4.3,8.8-6.5,16-6.5h3.5c5,0,9.8,0.7,12.7,9.2c1.4,3.2,3.6,8.7,5.5,13.5
			c1.6,4,3.6,9,4,9.9c1.2,2.4,2.9,6.9,1.1,11.1c-1.3,3.8-3,5.4-4.9,7.3l-5.3,5.3c-0.1,0.1-0.3,0.3-0.4,0.4c0.4,0.6,0.9,1.3,1.5,2.2
			c3.1,4.6,8.3,12.3,15.5,18.8c9.6,8.2,18,11.9,22.6,13.8c1.1,0.5,2,0.9,2.7,1.2l0.6,0.3c0.1,0,0.4-0.1,0.5-0.1
			c1.2-1.2,2.6-3.2,4.2-5.4c1.1-1.6,2.4-3.4,3.8-5.1c2.9-5.1,8.7-7.1,14.9-5c0.8,0.3,3.1,1,22.9,11c1,0.5,1.8,0.8,2.5,1.1
			c2,0.8,4.7,1.9,6.4,5.1c2.4,4.8,0.7,14-1.4,20.5l0,0l0,0c-3.5,10.5-16.3,17.7-26.1,20.7l-0.7,0.2
			C194.7,256.8,192.7,257.1,190.2,257.1z M110.6,132.6c-5.2,0-6.3,1.5-6.7,2l-0.3,0.3l-0.3,0.3c-3.2,3.2-9.8,9.8-9.8,23.2
			c0,13.5,10.1,27.9,11.6,29.5c0.5,0.5,1,1.2,2.2,2.8c16.3,22.4,33.8,37.7,51.7,45.5c24,9.9,31.1,9.2,35.2,8.5
			c7.6-2.3,16-7.5,17.8-12.9l0,0c1.7-5.1,2-8.9,2-10.7c-0.9-0.3-2-0.8-3.4-1.5c-18-9-21-10.2-21.4-10.3c-0.3-0.1-0.6-0.2-0.8-0.2
			l-0.2,0.4l-0.4,0.5c-1.4,1.7-2.6,3.4-3.8,5.1c-1.9,2.6-3.6,5-5.5,6.9c-3.4,3.4-9.8,5.2-15.1,1.9c-0.5-0.2-1.1-0.5-1.9-0.8
			c-5.1-2.2-14.7-6.4-25.6-15.8l-0.1-0.1c-8.2-7.5-14-16-17.4-21c-0.8-1.2-1.5-2.2-2-2.8l-0.3-0.4l-0.2-0.5
			c-3.7-7.4,1.1-12.2,2.9-14l5.3-5.3c1.6-1.6,1.7-1.7,2.1-3l0-0.1c-0.1-0.3-0.2-0.8-0.6-1.6c-0.5-1-1.7-3.9-4.4-10.8
			c-2-4.9-4.2-10.4-5.5-13.5l-0.2-0.5c-0.2-0.5-0.3-0.9-0.5-1.2c-0.3,0-0.6,0-0.9,0H110.6z M214,220L214,220L214,220z M188.7,208.9
			L188.7,208.9L188.7,208.9z M96.5,196.2c0.1,0.1,0.1,0.1,0.2,0.2C96.6,196.3,96.5,196.2,96.5,196.2z"/>
	</g>
</g>
</svg>
