<?xml version="1.0" encoding="utf-8"?>
<!-- Generator: Adobe Illustrator 28.2.0, SVG Export Plug-In . SVG Version: 6.00 Build 0)  -->
<svg version="1.1" id="Layer_1" xmlns:serif="http://www.serif.com/"
	 xmlns="http://www.w3.org/2000/svg" xmlns:xlink="http://www.w3.org/1999/xlink" x="0px" y="0px" viewBox="0 0 283.5 396.9"
	 style="enable-background:new 0 0 283.5 396.9;" xml:space="preserve">
<g transform="matrix(33.333333,0,0,33.333333,0,0)">
	<path d="M4.3,6.4C4,6.4,3.7,6.3,3.4,6.1L1.2,4.5C1,4.3,1,4.1,1.1,4c0.1-0.2,0.3-0.2,0.5-0.1l2.2,1.6c0.3,0.2,0.6,0.2,0.9,0l2.2-1.6
		C7,3.8,7.3,3.8,7.4,4c0.1,0.2,0.1,0.4-0.1,0.5L5.1,6.1C4.9,6.3,4.6,6.4,4.3,6.4z"/>
</g>
<g transform="matrix(33.333333,0,0,33.333333,0,0)">
	<path d="M7.4,8.8H1.1c-0.2,0-0.4-0.2-0.4-0.4V3.5c0-0.2,0.2-0.4,0.4-0.4h6.3c0.2,0,0.4,0.2,0.4,0.4v4.9C7.8,8.6,7.6,8.8,7.4,8.8z
		 M1.4,8.1h5.7V3.8H1.4V8.1z"/>
</g>
</svg>
