<?xml version="1.0" encoding="utf-8"?>
<!-- Generator: Adobe Illustrator 28.2.0, SVG Export Plug-In . SVG Version: 6.00 Build 0)  -->
<svg version="1.1" id="Layer_1" xmlns:serif="http://www.serif.com/"
	 xmlns="http://www.w3.org/2000/svg" xmlns:xlink="http://www.w3.org/1999/xlink" x="0px" y="0px" viewBox="0 0 283.5 396.9"
	 style="enable-background:new 0 0 283.5 396.9;" xml:space="preserve">
<path d="M248,136.4H35.4c-4.9,0-8.9-4-8.9-8.9c0-4.9,4-8.9,8.9-8.9H248c4.9,0,8.9,4,8.9,8.9C256.9,132.5,252.9,136.4,248,136.4z"/>
<path d="M118.1,207.3H35.4c-4.9,0-8.9-4-8.9-8.9s4-8.9,8.9-8.9h82.7c4.9,0,8.9,4,8.9,8.9S123,207.3,118.1,207.3z"/>
<path d="M118.1,278.2H35.4c-4.9,0-8.9-4-8.9-8.9s4-8.9,8.9-8.9h82.7c4.9,0,8.9,4,8.9,8.9S123,278.2,118.1,278.2z"/>
<path d="M200.8,278.2c-24.4,0-44.3-19.9-44.3-44.3c0-24.4,19.9-44.3,44.3-44.3c24.4,0,44.3,19.9,44.3,44.3
	C245.1,258.3,225.2,278.2,200.8,278.2z M200.8,207.3c-14.7,0-26.6,11.9-26.6,26.6s11.9,26.6,26.6,26.6s26.6-11.9,26.6-26.6
	S215.4,207.3,200.8,207.3z"/>
<path d="M248,290c-2.3,0-4.5-0.9-6.3-2.6l-22.4-22.4c-3.5-3.5-3.5-9.1,0-12.5c3.5-3.5,9.1-3.5,12.5,0l22.4,22.4
	c3.5,3.5,3.5,9.1,0,12.5C252.6,289.1,250.3,290,248,290z"/>
</svg>
