<?xml version="1.0" encoding="utf-8"?>
<!-- Generator: Adobe Illustrator 28.2.0, SVG Export Plug-In . SVG Version: 6.00 Build 0)  -->
<svg version="1.1" id="Layer_1" xmlns:serif="http://www.serif.com/"
	 xmlns="http://www.w3.org/2000/svg" xmlns:xlink="http://www.w3.org/1999/xlink" x="0px" y="0px" viewBox="0 0 283.5 396.9"
	 style="enable-background:new 0 0 283.5 396.9;" xml:space="preserve">
<path d="M212.6,254.5c-2.3,0-4.5-0.9-6.3-2.6c-3.5-3.5-3.5-9.1,0-12.5l41-41l-41-41c-3.5-3.5-3.5-9.1,0-12.5c3.5-3.5,9.1-3.5,12.5,0
	l47.2,47.2c3.5,3.5,3.5,9.1,0,12.5l-47.2,47.2C217.1,253.7,214.9,254.5,212.6,254.5z"/>
<path d="M70.9,254.5c-2.3,0-4.5-0.9-6.3-2.6l-47.2-47.2c-3.5-3.5-3.5-9.1,0-12.5l47.2-47.2c3.5-3.5,9.1-3.5,12.5,0
	c3.5,3.5,3.5,9.1,0,12.5l-41,41l41,41c3.5,3.5,3.5,9.1,0,12.5C75.4,253.7,73.1,254.5,70.9,254.5z"/>
<path d="M112.2,301.8c-0.9,0-1.8-0.1-2.6-0.4c-4.7-1.5-7.3-6.4-5.8-11.1l59.1-189c1.5-4.7,6.4-7.3,11.1-5.8
	c4.7,1.5,7.3,6.4,5.8,11.1l-59.1,189C119.5,299.3,116,301.8,112.2,301.8z"/>
</svg>
