<?xml version="1.0" encoding="utf-8"?>
<!-- Generator: Adobe Illustrator 28.2.0, SVG Export Plug-In . SVG Version: 6.00 Build 0)  -->
<svg version="1.1" id="Layer_1" xmlns:serif="http://www.serif.com/"
	 xmlns="http://www.w3.org/2000/svg" xmlns:xlink="http://www.w3.org/1999/xlink" x="0px" y="0px" viewBox="0 0 283.5 396.9"
	 style="enable-background:new 0 0 283.5 396.9;" xml:space="preserve">
<g transform="matrix(2.666667,0,0,2.666667,0,0)">
	<path d="M66.4,56.2c-1.8,0-3.3-1.5-3.3-3.3v-5c0-5.5-4.5-10-10-10c-2.7,0-5.2,1.1-7.1,3c-0.6,0.6-1.5,1-2.4,1c0,0,0,0,0,0
		c-0.9,0-1.7-0.4-2.4-1l-8.2-8.4c-1.3-1.3-1.3-3.4,0-4.7c1.3-1.3,3.4-1.3,4.7,0l6.1,6.2c2.7-1.8,5.9-2.8,9.2-2.8
		c9.2,0,16.6,7.4,16.6,16.6v5C69.8,54.7,68.3,56.2,66.4,56.2z"/>
</g>
<g transform="matrix(2.666667,0,0,2.666667,0,0)">
	<path d="M62.5,41.8c-0.8,0-1.7-0.3-2.3-1c-1.3-1.3-1.3-3.4,0-4.7l8.3-8.3c1.3-1.3,3.4-1.3,4.7,0c1.3,1.3,1.3,3.4,0,4.7l-8.3,8.3
		C64.2,41.4,63.4,41.8,62.5,41.8z"/>
</g>
<g transform="matrix(2.666667,0,0,2.666667,0,0)">
	<path d="M97.4,82.2H79.7c-1.8,0-3.3-1.5-3.3-3.3V70c0-7.9-6.5-14.4-14.4-14.4h-5.8c-1.8,0-3.3-1.5-3.3-3.3s1.5-3.3,3.3-3.3H62
		c11.6,0,21,9.4,21,21v5.5h14.4c1.8,0,3.3,1.5,3.3,3.3S99.3,82.2,97.4,82.2z"/>
</g>
<g transform="matrix(2.666667,0,0,2.666667,0,0)">
	<path d="M77.4,64.4c-1.7,0-3.1-1.3-3.3-3c-0.2-1.8,1.1-3.5,3-3.7c7-0.7,12.5-7.1,12.5-14.4c0-1.8,1.5-3.3,3.3-3.3
		c1.8,0,3.3,1.5,3.3,3.3c0,10.7-8.1,19.9-18.5,21C77.6,64.4,77.5,64.4,77.4,64.4z"/>
</g>
<g transform="matrix(2.666667,0,0,2.666667,0,0)">
	<path d="M97.4,122c-0.8,0-1.7-0.3-2.3-1L6.5,32.5c-1.3-1.3-1.3-3.4,0-4.7c1.3-1.3,3.4-1.3,4.7,0l88.6,88.6c1.3,1.3,1.3,3.4,0,4.7
		C99.1,121.7,98.3,122,97.4,122z"/>
</g>
<g transform="matrix(2.666667,0,0,2.666667,0,0)">
	<path d="M53.1,113.2c-16.5,0-29.9-13.4-29.9-29.9V70c0-6.9,3.3-13.4,8.9-17.3c1.5-1.1,3.6-0.7,4.6,0.8c1.1,1.5,0.7,3.6-0.8,4.6
		c-3.9,2.7-6.1,7.2-6.1,11.9l0,13.4c0,12.8,10.4,23.3,23.3,23.3c8.1,0,15.7-4.3,19.9-11.2c1-1.6,3-2.1,4.6-1.1c1.6,1,2.1,3,1.1,4.6
		C73.3,107.7,63.5,113.2,53.1,113.2z"/>
</g>
<g transform="matrix(2.666667,0,0,2.666667,0,0)">
	<path d="M53.1,113.2c-1.8,0-3.3-1.5-3.3-3.3V74.4c0-1.8,1.5-3.3,3.3-3.3c1.8,0,3.3,1.5,3.3,3.3v35.4
		C56.5,111.7,55,113.2,53.1,113.2z"/>
</g>
<g transform="matrix(2.666667,0,0,2.666667,0,0)">
	<path d="M26.6,82.2H8.9c-1.8,0-3.3-1.5-3.3-3.3s1.5-3.3,3.3-3.3h17.7c1.8,0,3.3,1.5,3.3,3.3S28.4,82.2,26.6,82.2z"/>
</g>
<g transform="matrix(2.666667,0,0,2.666667,0,0)">
	<path d="M13.3,117.6c-1.8,0-3.3-1.5-3.3-3.3c0-11.1,9-20.5,20-21c1.8-0.1,3.4,1.3,3.5,3.2s-1.3,3.4-3.2,3.5
		c-7.5,0.4-13.7,6.8-13.7,14.4C16.6,116.1,15.1,117.6,13.3,117.6z"/>
</g>
</svg>
