<?xml version="1.0" encoding="utf-8"?>
<!-- Generator: Adobe Illustrator 28.2.0, SVG Export Plug-In . SVG Version: 6.00 Build 0)  -->
<svg version="1.1" id="Layer_1" xmlns:serif="http://www.serif.com/"
	 xmlns="http://www.w3.org/2000/svg" xmlns:xlink="http://www.w3.org/1999/xlink" x="0px" y="0px" viewBox="0 0 283.5 396.9"
	 style="enable-background:new 0 0 283.5 396.9;" xml:space="preserve">
<g transform="matrix(2.666667,0,0,2.666667,-1,0)">
	<path d="M88.4,117.6H15.3c-3.7,0-6.6-3-6.6-6.6V37.9c0-3.7,3-6.6,6.6-6.6h73.1c3.7,0,6.6,3,6.6,6.6v73.1
		C95,114.6,92.1,117.6,88.4,117.6z M88.4,37.9l-73.1,0v73.1h73.1V37.9z"/>
</g>
<g transform="matrix(2.666667,0,0,2.666667,-1,0)">
	<path d="M91.7,64.4H12c-1.8,0-3.3-1.5-3.3-3.3s1.5-3.3,3.3-3.3h79.7c1.8,0,3.3,1.5,3.3,3.3S93.6,64.4,91.7,64.4z"/>
</g>
<g transform="matrix(2.666667,0,0,2.666667,-1,0)">
	<path d="M38.6,117.6c-1.8,0-3.3-1.5-3.3-3.3V61.1c0-1.8,1.5-3.3,3.3-3.3s3.3,1.5,3.3,3.3v53.1C41.9,116.1,40.4,117.6,38.6,117.6z"
		/>
</g>
</svg>
